<svg width="64" height="64" viewBox="0 0 64 64" fill="none" xmlns="http://www.w3.org/2000/svg">
<rect width="64" height="64" rx="32" fill="#F2F4F7"/>
<path d="M32 32C28.6937 32 25.7812 28.8938 25.5 25.075C25.3562 23.1375 25.9562 21.3438 27.1875 20.025C28.4 18.7188 30.1125 18 32 18C33.875 18 35.5812 18.725 36.8 20.0375C38.0375 21.3688 38.6375 23.1562 38.4937 25.075C38.2125 28.8938 35.3 32 32 32ZM32 20C30.675 20 29.4812 20.4938 28.65 21.3875C27.8062 22.2938 27.3937 23.5563 27.4937 24.9313C27.6937 27.6813 29.7562 30.0063 31.9937 30.0063C34.2312 30.0063 36.2937 27.6813 36.4937 24.9313C36.5937 23.575 36.1812 22.3188 35.325 21.4C34.5 20.4938 33.3125 20 32 20Z" fill="#0B0B0B"/>
<path d="M43 45.9999H21C20.4 45.9999 19.8625 45.7499 19.4875 45.3061C19.0812 44.8186 18.9187 44.1561 19.0375 43.4874C19.5625 40.5624 21.2125 38.0999 23.8 36.3811C26.1 34.8499 29.0125 34.0061 32 34.0061C34.9875 34.0061 37.9 34.8499 40.2 36.3811C42.7875 38.1061 44.4375 40.5624 44.9625 43.4874C45.0812 44.1561 44.9187 44.8186 44.5125 45.3061C44.1375 45.7499 43.6 45.9999 43 45.9999ZM21.0125 43.9999H42.9875C43 43.9686 43.0062 43.9186 42.9937 43.8374C42.025 38.4561 36.6125 35.9999 32 35.9999C27.3875 35.9999 21.975 38.4561 21.0062 43.8374C20.9937 43.9186 21 43.9686 21.0125 43.9999Z" fill="#0B0B0B"/>
</svg>
